<svg xmlns="http://www.w3.org/2000/svg" height="800" width="1200" viewBox="-4.079535 -8.2776 35.35597 49.6656" style="background-color: #FF4500"><path d="M23.71 26.1367c0 .56-.454 1.0145-1.0144 1.0145-.5601 0-1.0142-.4545-1.0142-1.0145 0-.5601.454-1.0145 1.0142-1.0145.5604 0 1.0145.4544 1.0145 1.0145M6.3395 28.1654c.6901 0 1.2767.5291 1.4944 1.2677H4.845c.2177-.7386.8044-1.2677 1.4945-1.2677zm1.931 2.2822c.4939 0 .7813-.3693.76-.7325-.0114-.1922-.0283-.3114-.051-.4088-.3028-1.3123-1.3697-2.282-2.64-2.282-1.5056 0-2.726 1.3623-2.726 3.0429 0 1.6805 1.2204 3.0432 2.726 3.0432.943 0 1.6166-.3435 2.107-.882.2389-.2622.1947-.6743-.0967-.8769-.2367-.1645-.5363-.1089-.7565.0769-.2102.1774-.6118.5406-1.2538.5406-.7666 0-1.4065-.6534-1.553-1.5214zM3.6769 27.614a.5701.5701 0 00-.4767-.5622c-.831-.1254-1.6073.185-2.0592.7465v-.0769c0-.3484-.2853-.5704-.5705-.5704A.5705.5705 0 000 27.7214v4.6691c0 .3054.2303.5734.5353.592a.5708.5708 0 00.6057-.5697v-2.4084c0-1.0658.8014-1.941 1.9014-1.822a.514.514 0 00.1128-.0004.5703.5703 0 00.5217-.568m19.5894.6148a.5705.5705 0 00-1.141 0v4.184a.5705.5705 0 001.141 0zM12.172 31.9691c-.8755 0-1.585-.8514-1.585-1.9018 0-1.0505.7095-1.9019 1.585-1.9019.8754 0 1.585.8514 1.585 1.9019 0 1.0504-.7096 1.9018-1.585 1.9018zm2.599-6.91a.5708.5708 0 00-.5704-.571.5708.5708 0 00-.5705.571v2.5477c-.3865-.3862-.8794-.5827-1.4582-.5827-1.5056 0-2.726 1.3626-2.726 3.0432 0 1.6805 1.2204 3.0428 2.726 3.0428.5842 0 1.0738-.2008 1.4686-.59a.5707.5707 0 00.5601.4635.5708.5708 0 00.5705-.5708zm3.3602 6.91c-.8755 0-1.585-.8514-1.585-1.9018 0-1.0505.7095-1.9019 1.585-1.9019s1.585.8514 1.585 1.9019c0 1.0504-.7095 1.9018-1.585 1.9018zm2.5991-6.91a.5708.5708 0 00-.5704-.571.5708.5708 0 00-.5705.571v2.5477c-.3866-.3862-.8795-.5827-1.4582-.5827-1.5056 0-2.726 1.3626-2.726 3.0432 0 1.6805 1.2204 3.0428 2.726 3.0428.5841 0 1.0738-.2008 1.4686-.59a.5707.5707 0 00.56.4635.5708.5708 0 00.5705-.5708zm5.4348 7.3538v-4.2477h.5073c.2702 0 .5058-.2037.5234-.4732a.5072.5072 0 00-.5062-.541h-.5245v-.8047c0-.3039-.2292-.569-.5327-.5888a.5704.5704 0 00-.6082.5694v.8241h-.4728c-.2698 0-.5058.2037-.5234.4735a.5071.5071 0 00.5062.5407h.49v4.2477a.5705.5705 0 001.141 0M17.291 13.7583c-.9723 0-1.764-.7909-1.764-1.7639s.7917-1.7638 1.764-1.7638c.9722 0 1.7638.7909 1.7638 1.7638 0 .973-.7916 1.764-1.7639 1.764m.3105 2.897c-1.2037 1.2022-3.5109 1.2953-4.189 1.2953-.6787 0-2.9858-.093-4.1881-1.296a.457.457 0 010-.6464.4578.4578 0 01.647 0c.7585.7592 2.382 1.028 3.5412 1.028 1.1592 0 2.7827-.2688 3.5433-1.028a.457.457 0 01.6463.0008.457.457 0 01-.0007.6462m-9.8355-4.6609c0-.973.7916-1.7638 1.7646-1.7638.9723 0 1.7632.7909 1.7632 1.7638 0 .9723-.791 1.7632-1.7632 1.7632-.973 0-1.7646-.7909-1.7646-1.7632m16.9305-1.7638c0-1.3639-1.1056-2.4695-2.4694-2.4695-.6654 0-1.2686.2646-1.7124.6929-1.6884-1.2185-4.014-2.0052-6.604-2.0955l1.1246-5.2924 3.6753.781c.0444.935.81 1.6807 1.7554 1.6807.9744 0 1.7639-.7902 1.7639-1.764C22.2298.7896 21.4403 0 20.4659 0c-.6928 0-1.2862.4029-1.5748.9842L14.787.1122a.434.434 0 00-.3316.0614.442.442 0 00-.1912.278L13.03 6.259c-.0071.0331-.0014.0649-.0014.0974-2.6367.069-5.0074.858-6.7219 2.0926-.4438-.4254-1.0442-.6879-1.7074-.6879-1.3639 0-2.4695 1.1056-2.4695 2.4695 0 1.0033.599 1.8647 1.4591 2.2514a4.8663 4.8663 0 00-.0592.7472c0 3.7987 4.4224 6.8791 9.8777 6.8791 5.4554 0 9.8778-3.0804 9.8778-6.8791 0-.2512-.0205-.4989-.0579-.7423.865-.3845 1.469-1.2495 1.469-2.2563" fill="#FFF"/></svg>